<svg width="23" height="10" viewBox="0 0 23 10" fill="none" xmlns="http://www.w3.org/2000/svg">
<path d="M14.827 9.71659C14.9002 9.84356 14.8056 10 14.6555 10H12.5337C12.2666 10 12.0205 9.85991 11.8903 9.63385L10.8331 7.79764C10.7984 7.73736 10.7328 7.7 10.6616 7.7H6.50329C6.32617 7.7 6.21434 7.5156 6.30063 7.36581L6.7774 6.53817C7.18727 5.82667 7.96273 5.38572 8.80408 5.38572H9.11719C9.26735 5.38572 9.36201 5.22903 9.28855 5.10206L7.59139 2.1686C7.52235 2.04927 7.35394 2.03975 7.26896 2.13978L7.26867 2.14013C7.26123 2.14893 7.25443 2.15857 7.2484 2.16906L3.0052 9.54015L2.94915 9.63653C2.81855 9.86109 2.57327 10 2.30736 10H0.196759C0.0467274 10 -0.0479436 9.84356 0.0252544 9.71659L5.41615 0.365799C5.54637 0.139934 5.7924 0 6.05929 0H8.79301C9.0599 0 9.30593 0.139933 9.43615 0.365798L14.827 9.71659Z" fill="white"/>
<path d="M15.0713 9.74326C15.1631 9.90184 15.3359 10 15.5232 10H20.6337C21.0305 10 21.3611 9.94286 21.6256 9.82857C21.8975 9.71429 22.1216 9.56667 22.2979 9.38571C22.4743 9.19524 22.6102 8.98571 22.7057 8.75714C22.8013 8.52857 22.871 8.3 22.9151 8.07143C22.9592 7.84286 22.9849 7.62857 22.9923 7.42857C22.9956 7.33907 22.9981 7.25625 22.9999 7.1801C23.0032 7.04119 22.8872 6.92857 22.7441 6.92857H20.8929C20.7497 6.92857 20.6395 7.04273 20.6097 7.17863C20.5931 7.25395 20.5681 7.31822 20.5345 7.37143C20.4757 7.47619 20.4096 7.55239 20.3361 7.6C20.2479 7.65714 20.1487 7.69047 20.0385 7.7H14.6932C14.5756 7.69047 14.4764 7.65714 14.3956 7.6C14.3148 7.55239 14.245 7.47619 14.1862 7.37143C14.1274 7.26667 14.098 7.11904 14.098 6.92857V3.07143C14.098 2.88096 14.1274 2.7381 14.1862 2.64286C14.245 2.5381 14.3148 2.4619 14.3956 2.41429C14.4764 2.35714 14.5756 2.32381 14.6932 2.31429H20.0385C20.1487 2.32381 20.2479 2.35714 20.3361 2.41429C20.4096 2.4619 20.4757 2.5381 20.5345 2.64286C20.5676 2.6905 20.5924 2.75005 20.6089 2.82151C20.6403 2.95707 20.7497 3.07143 20.8929 3.07143H22.7441C22.8872 3.07143 23.0031 2.95881 22.9996 2.81991C22.9979 2.74872 22.9954 2.67065 22.9923 2.58571C22.9849 2.38571 22.9592 2.17143 22.9151 1.94286C22.871 1.71429 22.8013 1.48571 22.7057 1.25714C22.6102 1.01905 22.4743 0.809523 22.2979 0.628572C22.1216 0.438095 21.8975 0.285715 21.6256 0.171429C21.3611 0.057143 21.0305 0 20.6337 0H14.098C13.7013 0 13.3669 0.057143 13.0951 0.171429C12.8306 0.285715 12.6101 0.438095 12.4338 0.628572C12.2575 0.809523 12.1215 1.01905 12.026 1.25714C11.9305 1.48571 11.8607 1.71429 11.8166 1.94286C11.7725 2.17143 11.7468 2.38571 11.7395 2.58571C11.7321 2.78571 11.7284 2.94761 11.7284 3.07143V3.70363C11.7284 3.87624 11.7742 4.04595 11.8613 4.19644L15.0713 9.74326Z" fill="white"/>
</svg>
