<svg width="17" height="13" viewBox="0 0 17 13" fill="none" xmlns="http://www.w3.org/2000/svg">
<path fill-rule="evenodd" clip-rule="evenodd" d="M2.55 0C1.8737 0 1.2251 0.256807 0.746878 0.713927C0.26866 1.17105 0 1.79103 0 2.4375V3.25H17V2.4375C17 1.79103 16.7313 1.17105 16.2531 0.713927C15.7749 0.256807 15.1263 0 14.45 0H2.55ZM17 4.875H0V10.5625C0 11.209 0.26866 11.829 0.746878 12.2861C1.2251 12.7432 1.8737 13 2.55 13H14.45C15.1263 13 15.7749 12.7432 16.2531 12.2861C16.7313 11.829 17 11.209 17 10.5625V4.875ZM5.1 8.9375C5.1 8.72201 5.18955 8.51535 5.34896 8.36298C5.50837 8.2106 5.72457 8.125 5.95 8.125H9.7019L9.59905 8.02669C9.43956 7.87434 9.34991 7.66766 9.34983 7.45213C9.34975 7.2366 9.43924 7.02986 9.59863 6.87741C9.75801 6.72495 9.97422 6.63926 10.1997 6.63918C10.4252 6.6391 10.6415 6.72465 10.801 6.877L12.3548 8.36306C12.5141 8.51543 12.6036 8.72205 12.6036 8.9375C12.6036 9.15295 12.5141 9.35957 12.3548 9.51194L10.801 10.9972C10.7225 11.0748 10.6287 11.1367 10.525 11.1793C10.4213 11.2219 10.3098 11.2443 10.1969 11.2452C10.0841 11.2461 9.97215 11.2256 9.86769 11.1847C9.76323 11.1439 9.66832 11.0835 9.58851 11.0073C9.50871 10.931 9.44559 10.8403 9.40285 10.7404C9.36011 10.6405 9.33861 10.5336 9.33959 10.4257C9.34057 10.3178 9.36402 10.2112 9.40856 10.112C9.45311 10.0129 9.51787 9.92326 9.59905 9.84831L9.7019 9.75H5.95C5.72457 9.75 5.50837 9.6644 5.34896 9.51202C5.18955 9.35965 5.1 9.15299 5.1 8.9375Z" fill="white"/>
</svg>
