<svg width="18" height="22" viewBox="0 0 18 22" fill="none" xmlns="http://www.w3.org/2000/svg">
<path d="M16.9491 13.7503C17.6419 12.3984 18.0029 10.8895 18 9.35768C18 4.18949 13.9706 0 9 0C4.02936 0 1.38767e-05 4.18949 1.38767e-05 9.35768C-0.00372148 11.5652 0.746771 13.7023 2.11766 15.3879L2.12825 15.4016L2.13778 15.4127H2.11766L7.45835 21.308C7.65633 21.5265 7.8952 21.7006 8.16027 21.8196C8.42534 21.9386 8.71101 22 8.99973 22C9.28846 22 9.57413 21.9386 9.8392 21.8196C10.1043 21.7006 10.3431 21.5265 10.5411 21.308L15.8823 15.4127H15.8622L15.8707 15.4022L15.8718 15.4011C15.9099 15.3538 15.9478 15.3061 15.9856 15.258C16.3529 14.7888 16.6756 14.2842 16.9491 13.7503ZM9.00265 12.9351C8.1602 12.9351 7.35225 12.5871 6.75655 11.9677C6.16084 11.3483 5.82618 10.5083 5.82618 9.63236C5.82618 8.75642 6.16084 7.91637 6.75655 7.29699C7.35225 6.67761 8.1602 6.32965 9.00265 6.32965C9.8451 6.32965 10.653 6.67761 11.2487 7.29699C11.8444 7.91637 12.1791 8.75642 12.1791 9.63236C12.1791 10.5083 11.8444 11.3483 11.2487 11.9677C10.653 12.5871 9.8451 12.9351 9.00265 12.9351Z" fill="white" fill-opacity="0.7"/>
</svg>
