<svg width="20" height="18" viewBox="0 0 20 18" fill="none" xmlns="http://www.w3.org/2000/svg">
<path fill-rule="evenodd" clip-rule="evenodd" d="M5.0001 17.9527H4.05635C3.5288 17.9529 3.01971 17.7637 2.6265 17.4215C2.23329 17.0792 1.98356 16.6079 1.92512 16.0976C1.78137 14.8812 1.60637 13.2816 1.50637 12.3936H4.3751L5.0001 17.9527ZM13.5688 2.21212V14.1635L5.2501 11.0495C5.17026 11.0194 5.08569 11.0029 5.0001 11.0008H0.712626C0.523687 10.9995 0.342478 10.9276 0.206379 10.8001C0.139326 10.7347 0.0865023 10.6569 0.0510654 10.5712C0.0156285 10.4855 -0.00169472 10.3937 0.000130611 10.3014V5.43566C-0.000723727 5.34524 0.0170924 5.25559 0.0525217 5.172C0.087951 5.08842 0.140272 5.01262 0.206379 4.94908C0.272515 4.88375 0.351314 4.83183 0.438212 4.79633C0.525111 4.76083 0.618383 4.74247 0.712626 4.74229H5.0001C5.06846 4.75238 5.13799 4.75238 5.20635 4.74229L13.5688 2.21212Z" fill="white"/>
<path d="M15 0.570312H17.1438V15.8608H15V0.570312Z" fill="white"/>
<path fill-rule="evenodd" clip-rule="evenodd" d="M20.0001 7.52189V8.91469C20.0001 9.28409 19.8493 9.63836 19.5809 9.89956C19.3125 10.1608 18.9484 10.3075 18.5688 10.3075V6.13516C18.9474 6.13516 19.3105 6.28106 19.5787 6.54095C19.8469 6.80084 19.9984 7.15354 20.0001 7.52189Z" fill="white"/>
</svg>
